<svg width="78" height="78" viewBox="0 0 78 78" fill="none" xmlns="http://www.w3.org/2000/svg">
<circle cx="39" cy="39" r="38.5" fill="#D9D9D9" stroke="#396C03"/>
<path d="M48.3511 42.2502C50.3695 42.2502 52.0055 43.8863 52.0055 45.9047V46.8397C52.0055 48.2929 51.4862 49.6982 50.5412 50.8023C47.991 53.7817 44.1118 55.252 39.0006 55.252C33.8886 55.252 30.0113 53.7812 27.4661 50.8005C26.5239 49.6973 26.0063 48.2941 26.0063 46.8433V45.9047C26.0063 43.8863 27.6425 42.2502 29.6608 42.2502H48.3511ZM48.3511 44.6877H29.6608C28.9887 44.6877 28.4438 45.2326 28.4438 45.9047V46.8433C28.4438 47.7138 28.7544 48.5557 29.3197 49.2176C31.3563 51.6026 34.5508 52.8145 39.0006 52.8145C43.4504 52.8145 46.6477 51.6026 48.6894 49.2172C49.2565 48.5547 49.568 47.7115 49.568 46.8397V45.9047C49.568 45.2326 49.0232 44.6877 48.3511 44.6877ZM39.0006 22.7578C43.4879 22.7578 47.1256 26.3955 47.1256 30.8828C47.1256 35.3701 43.4879 39.0078 39.0006 39.0078C34.5133 39.0078 30.8756 35.3701 30.8756 30.8828C30.8756 26.3955 34.5133 22.7578 39.0006 22.7578ZM39.0006 25.1953C35.8595 25.1953 33.3131 27.7417 33.3131 30.8828C33.3131 34.0239 35.8595 36.5703 39.0006 36.5703C42.1418 36.5703 44.6881 34.0239 44.6881 30.8828C44.6881 27.7417 42.1418 25.1953 39.0006 25.1953Z" fill="#396C03"/>
</svg>
