<svg width="66" height="64" viewBox="0 0 66 64" fill="none" xmlns="http://www.w3.org/2000/svg">
<path d="M42.2846 20.7209L37.2798 5.31763C35.9327 1.17174 30.0673 1.17171 28.7202 5.31762L23.7154 20.7209C23.5146 21.3389 22.9387 21.7574 22.2888 21.7574H6.0929C1.73366 21.7574 -0.0788612 27.3356 3.44786 29.8979L16.5507 39.4177C17.0764 39.7996 17.2964 40.4767 17.0956 41.0947L12.0907 56.498C10.7437 60.6439 15.4888 64.0914 19.0155 61.5291L32.1183 52.0094C32.6441 51.6274 33.3559 51.6274 33.8817 52.0094L46.9845 61.5291C50.5112 64.0914 55.2563 60.6439 53.9093 56.498L48.9044 41.0947C48.7036 40.4767 48.9236 39.7996 49.4493 39.4177L62.5521 29.8979C66.0788 27.3356 64.2664 21.7574 59.9071 21.7574H43.7112C43.0613 21.7574 42.4854 21.3389 42.2846 20.7209Z" fill="#EDFF24" stroke="#396C03" stroke-width="3"/>
</svg>
