<svg width="25" height="25" viewBox="0 0 25 25" fill="none" xmlns="http://www.w3.org/2000/svg">
<path d="M21.7216 21.5L15.7216 15.5M17.7216 10.5C17.7216 11.4193 17.5405 12.3295 17.1888 13.1788C16.837 14.0281 16.3214 14.7997 15.6714 15.4497C15.0213 16.0998 14.2497 16.6154 13.4004 16.9672C12.5511 17.3189 11.6409 17.5 10.7216 17.5C9.80235 17.5 8.8921 17.3189 8.04282 16.9672C7.19354 16.6154 6.42187 16.0998 5.77186 15.4497C5.12185 14.7997 4.60623 14.0281 4.25445 13.1788C3.90266 12.3295 3.7216 11.4193 3.7216 10.5C3.7216 8.64348 4.4591 6.86301 5.77186 5.55025C7.08461 4.2375 8.86509 3.5 10.7216 3.5C12.5781 3.5 14.3586 4.2375 15.6714 5.55025C16.9841 6.86301 17.7216 8.64348 17.7216 10.5Z" stroke="white" stroke-width="2" stroke-linecap="round" stroke-linejoin="round"/>
</svg>
