<svg width="48" height="48" viewBox="0 0 48 48" fill="none" xmlns="http://www.w3.org/2000/svg">
<circle cx="24" cy="24" r="23.5" fill="#D9D9D9" stroke="#396C03"/>
<path d="M29.7545 26.0002C30.9966 26.0002 32.0034 27.007 32.0034 28.2491V28.8245C32.0034 29.7188 31.6838 30.5836 31.1023 31.263C29.5329 33.0965 27.1457 34.0013 24.0004 34.0013C20.8545 34.0013 18.4685 33.0962 16.9022 31.2619C16.3224 30.583 16.0039 29.7195 16.0039 28.8267V28.2491C16.0039 27.007 17.0108 26.0002 18.2528 26.0002H29.7545ZM29.7545 27.5002H18.2528C17.8392 27.5002 17.5039 27.8355 17.5039 28.2491V28.8267C17.5039 29.3624 17.695 29.8805 18.0429 30.2878C19.2962 31.7555 21.2621 32.5013 24.0004 32.5013C26.7387 32.5013 28.7063 31.7555 29.9627 30.2876C30.3117 29.8799 30.5034 29.361 30.5034 28.8245V28.2491C30.5034 27.8355 30.1681 27.5002 29.7545 27.5002ZM24.0004 14.0049C26.7618 14.0049 29.0004 16.2435 29.0004 19.0049C29.0004 21.7663 26.7618 24.0049 24.0004 24.0049C21.2389 24.0049 19.0004 21.7663 19.0004 19.0049C19.0004 16.2435 21.2389 14.0049 24.0004 14.0049ZM24.0004 15.5049C22.0674 15.5049 20.5004 17.0719 20.5004 19.0049C20.5004 20.9379 22.0674 22.5049 24.0004 22.5049C25.9334 22.5049 27.5004 20.9379 27.5004 19.0049C27.5004 17.0719 25.9334 15.5049 24.0004 15.5049Z" fill="#396C03"/>
</svg>
