<svg width="48" height="49" viewBox="0 0 48 49" fill="none" xmlns="http://www.w3.org/2000/svg">
<circle cx="24" cy="24.3169" r="23.5" fill="#D9D9D9" stroke="#396C03"/>
<path d="M29.7545 26.3171C30.9966 26.3171 32.0034 27.3239 32.0034 28.566V29.1414C32.0034 30.0357 31.6838 30.9005 31.1023 31.5799C29.5329 33.4134 27.1457 34.3182 24.0004 34.3182C20.8545 34.3182 18.4685 33.4131 16.9022 31.5788C16.3224 30.8999 16.0039 30.0364 16.0039 29.1436V28.566C16.0039 27.3239 17.0108 26.3171 18.2528 26.3171H29.7545ZM29.7545 27.8171H18.2528C17.8392 27.8171 17.5039 28.1524 17.5039 28.566V29.1436C17.5039 29.6793 17.695 30.1974 18.0429 30.6047C19.2962 32.0724 21.2621 32.8182 24.0004 32.8182C26.7387 32.8182 28.7063 32.0724 29.9627 30.6045C30.3117 30.1968 30.5034 29.6779 30.5034 29.1414V28.566C30.5034 28.1524 30.1681 27.8171 29.7545 27.8171ZM24.0004 14.3218C26.7618 14.3218 29.0004 16.5604 29.0004 19.3218C29.0004 22.0832 26.7618 24.3218 24.0004 24.3218C21.2389 24.3218 19.0004 22.0832 19.0004 19.3218C19.0004 16.5604 21.2389 14.3218 24.0004 14.3218ZM24.0004 15.8218C22.0674 15.8218 20.5004 17.3888 20.5004 19.3218C20.5004 21.2548 22.0674 22.8218 24.0004 22.8218C25.9334 22.8218 27.5004 21.2548 27.5004 19.3218C27.5004 17.3888 25.9334 15.8218 24.0004 15.8218Z" fill="#396C03"/>
</svg>
