<svg width="25" height="25" viewBox="0 0 25 25" fill="none" xmlns="http://www.w3.org/2000/svg">
<path d="M21.7217 21.5L15.7217 15.5M17.7217 10.5C17.7217 11.4193 17.5406 12.3295 17.1888 13.1788C16.8371 14.0281 16.3214 14.7997 15.6714 15.4497C15.0214 16.0998 14.2497 16.6154 13.4005 16.9672C12.5512 17.3189 11.6409 17.5 10.7217 17.5C9.80243 17.5 8.89217 17.3189 8.0429 16.9672C7.19362 16.6154 6.42194 16.0998 5.77193 15.4497C5.12192 14.7997 4.60631 14.0281 4.25452 13.1788C3.90274 12.3295 3.72168 11.4193 3.72168 10.5C3.72168 8.64348 4.45918 6.86301 5.77193 5.55025C7.08469 4.2375 8.86516 3.5 10.7217 3.5C12.5782 3.5 14.3587 4.2375 15.6714 5.55025C16.9842 6.86301 17.7217 8.64348 17.7217 10.5Z" stroke="white" stroke-width="2" stroke-linecap="round" stroke-linejoin="round"/>
</svg>
